<?xml version="1.0" standalone="no"?>
<!DOCTYPE svg PUBLIC "-//W3C//DTD SVG 20010904//EN"
 "http://www.w3.org/TR/2001/REC-SVG-20010904/DTD/svg10.dtd">
<svg version="1.0" xmlns="http://www.w3.org/2000/svg"
 width="1500.000000pt" height="1500.000000pt" viewBox="0 0 1500.000000 1500.000000"
 preserveAspectRatio="xMidYMid meet">
<metadata>
Created by potrace 1.11, written by Peter Selinger 2001-2013
</metadata>
<g transform="translate(0.000000,1500.000000) scale(0.100000,-0.100000)"
fill="#000000" stroke="none">
<path d="M3475 13349 l7 -1415 -134 -43 c-877 -282 -1658 -828 -2222 -1556
-98 -125 -162 -219 -146 -213 8 4 83 36 165 71 559 240 1113 383 1755 453 201
21 741 30 966 15 1197 -81 2328 -509 3259 -1234 293 -229 678 -598 902 -867
480 -576 827 -1185 1070 -1879 98 -281 112 -400 74 -621 -72 -415 -278 -799
-607 -1127 -73 -73 -137 -133 -142 -133 -5 0 -14 46 -21 103 -21 172 -150 601
-278 927 -598 1519 -1811 2713 -3337 3285 -601 225 -1199 339 -1891 361 -403
13 -897 -36 -1342 -132 -357 -76 -771 -212 -1104 -361 l-57 -25 -37 -126 c-77
-263 -134 -552 -167 -852 -20 -180 -17 -749 5 -935 40 -330 104 -631 198 -921
336 -1038 1049 -1936 1988 -2503 165 -100 442 -240 621 -314 104 -43 404 -147
498 -173 9 -3 12 -272 13 -1301 1 -714 4 -1362 8 -1440 l6 -142 5642 3602
c3103 1981 5642 3604 5642 3607 0 4 -11200 7218 -11301 7279 l-41 25 8 -1415z"/>
</g>
</svg>
